%TF.GenerationSoftware,KiCad,Pcbnew,7.0.7*%
%TF.CreationDate,2023-08-25T12:50:39-04:00*%
%TF.ProjectId,uC breakout,75432062-7265-4616-9b6f-75742e6b6963,rev?*%
%TF.SameCoordinates,Original*%
%TF.FileFunction,Legend,Top*%
%TF.FilePolarity,Positive*%
%FSLAX46Y46*%
G04 Gerber Fmt 4.6, Leading zero omitted, Abs format (unit mm)*
G04 Created by KiCad (PCBNEW 7.0.7) date 2023-08-25 12:50:39*
%MOMM*%
%LPD*%
G01*
G04 APERTURE LIST*
G04 Aperture macros list*
%AMRoundRect*
0 Rectangle with rounded corners*
0 $1 Rounding radius*
0 $2 $3 $4 $5 $6 $7 $8 $9 X,Y pos of 4 corners*
0 Add a 4 corners polygon primitive as box body*
4,1,4,$2,$3,$4,$5,$6,$7,$8,$9,$2,$3,0*
0 Add four circle primitives for the rounded corners*
1,1,$1+$1,$2,$3*
1,1,$1+$1,$4,$5*
1,1,$1+$1,$6,$7*
1,1,$1+$1,$8,$9*
0 Add four rect primitives between the rounded corners*
20,1,$1+$1,$2,$3,$4,$5,0*
20,1,$1+$1,$4,$5,$6,$7,0*
20,1,$1+$1,$6,$7,$8,$9,0*
20,1,$1+$1,$8,$9,$2,$3,0*%
G04 Aperture macros list end*
%ADD10C,0.150000*%
%ADD11C,0.120000*%
%ADD12R,1.000000X1.000000*%
%ADD13RoundRect,0.135000X0.135000X0.185000X-0.135000X0.185000X-0.135000X-0.185000X0.135000X-0.185000X0*%
%ADD14C,0.650000*%
%ADD15R,0.600000X1.450000*%
%ADD16R,0.300000X1.450000*%
%ADD17O,1.000000X2.100000*%
%ADD18O,1.000000X1.600000*%
G04 APERTURE END LIST*
D10*
X146012361Y-57825325D02*
X146012361Y-58396753D01*
X146012361Y-58396753D02*
X145974266Y-58511039D01*
X145974266Y-58511039D02*
X145898075Y-58587230D01*
X145898075Y-58587230D02*
X145783790Y-58625325D01*
X145783790Y-58625325D02*
X145707599Y-58625325D01*
X146774266Y-58625325D02*
X146393314Y-58625325D01*
X146393314Y-58625325D02*
X146393314Y-57825325D01*
X147498076Y-58549134D02*
X147459980Y-58587230D01*
X147459980Y-58587230D02*
X147345695Y-58625325D01*
X147345695Y-58625325D02*
X147269504Y-58625325D01*
X147269504Y-58625325D02*
X147155218Y-58587230D01*
X147155218Y-58587230D02*
X147079028Y-58511039D01*
X147079028Y-58511039D02*
X147040933Y-58434849D01*
X147040933Y-58434849D02*
X147002837Y-58282468D01*
X147002837Y-58282468D02*
X147002837Y-58168182D01*
X147002837Y-58168182D02*
X147040933Y-58015801D01*
X147040933Y-58015801D02*
X147079028Y-57939610D01*
X147079028Y-57939610D02*
X147155218Y-57863420D01*
X147155218Y-57863420D02*
X147269504Y-57825325D01*
X147269504Y-57825325D02*
X147345695Y-57825325D01*
X147345695Y-57825325D02*
X147459980Y-57863420D01*
X147459980Y-57863420D02*
X147498076Y-57901515D01*
X148069504Y-57825325D02*
X148069504Y-58396753D01*
X148069504Y-58396753D02*
X148031409Y-58511039D01*
X148031409Y-58511039D02*
X147955218Y-58587230D01*
X147955218Y-58587230D02*
X147840933Y-58625325D01*
X147840933Y-58625325D02*
X147764742Y-58625325D01*
X148831409Y-58625325D02*
X148450457Y-58625325D01*
X148450457Y-58625325D02*
X148450457Y-57825325D01*
X149555219Y-58549134D02*
X149517123Y-58587230D01*
X149517123Y-58587230D02*
X149402838Y-58625325D01*
X149402838Y-58625325D02*
X149326647Y-58625325D01*
X149326647Y-58625325D02*
X149212361Y-58587230D01*
X149212361Y-58587230D02*
X149136171Y-58511039D01*
X149136171Y-58511039D02*
X149098076Y-58434849D01*
X149098076Y-58434849D02*
X149059980Y-58282468D01*
X149059980Y-58282468D02*
X149059980Y-58168182D01*
X149059980Y-58168182D02*
X149098076Y-58015801D01*
X149098076Y-58015801D02*
X149136171Y-57939610D01*
X149136171Y-57939610D02*
X149212361Y-57863420D01*
X149212361Y-57863420D02*
X149326647Y-57825325D01*
X149326647Y-57825325D02*
X149402838Y-57825325D01*
X149402838Y-57825325D02*
X149517123Y-57863420D01*
X149517123Y-57863420D02*
X149555219Y-57901515D01*
X150126647Y-57825325D02*
X150126647Y-58396753D01*
X150126647Y-58396753D02*
X150088552Y-58511039D01*
X150088552Y-58511039D02*
X150012361Y-58587230D01*
X150012361Y-58587230D02*
X149898076Y-58625325D01*
X149898076Y-58625325D02*
X149821885Y-58625325D01*
X150888552Y-58625325D02*
X150507600Y-58625325D01*
X150507600Y-58625325D02*
X150507600Y-57825325D01*
X151612362Y-58549134D02*
X151574266Y-58587230D01*
X151574266Y-58587230D02*
X151459981Y-58625325D01*
X151459981Y-58625325D02*
X151383790Y-58625325D01*
X151383790Y-58625325D02*
X151269504Y-58587230D01*
X151269504Y-58587230D02*
X151193314Y-58511039D01*
X151193314Y-58511039D02*
X151155219Y-58434849D01*
X151155219Y-58434849D02*
X151117123Y-58282468D01*
X151117123Y-58282468D02*
X151117123Y-58168182D01*
X151117123Y-58168182D02*
X151155219Y-58015801D01*
X151155219Y-58015801D02*
X151193314Y-57939610D01*
X151193314Y-57939610D02*
X151269504Y-57863420D01*
X151269504Y-57863420D02*
X151383790Y-57825325D01*
X151383790Y-57825325D02*
X151459981Y-57825325D01*
X151459981Y-57825325D02*
X151574266Y-57863420D01*
X151574266Y-57863420D02*
X151612362Y-57901515D01*
X152183790Y-57825325D02*
X152183790Y-58396753D01*
X152183790Y-58396753D02*
X152145695Y-58511039D01*
X152145695Y-58511039D02*
X152069504Y-58587230D01*
X152069504Y-58587230D02*
X151955219Y-58625325D01*
X151955219Y-58625325D02*
X151879028Y-58625325D01*
X152945695Y-58625325D02*
X152564743Y-58625325D01*
X152564743Y-58625325D02*
X152564743Y-57825325D01*
X153669505Y-58549134D02*
X153631409Y-58587230D01*
X153631409Y-58587230D02*
X153517124Y-58625325D01*
X153517124Y-58625325D02*
X153440933Y-58625325D01*
X153440933Y-58625325D02*
X153326647Y-58587230D01*
X153326647Y-58587230D02*
X153250457Y-58511039D01*
X153250457Y-58511039D02*
X153212362Y-58434849D01*
X153212362Y-58434849D02*
X153174266Y-58282468D01*
X153174266Y-58282468D02*
X153174266Y-58168182D01*
X153174266Y-58168182D02*
X153212362Y-58015801D01*
X153212362Y-58015801D02*
X153250457Y-57939610D01*
X153250457Y-57939610D02*
X153326647Y-57863420D01*
X153326647Y-57863420D02*
X153440933Y-57825325D01*
X153440933Y-57825325D02*
X153517124Y-57825325D01*
X153517124Y-57825325D02*
X153631409Y-57863420D01*
X153631409Y-57863420D02*
X153669505Y-57901515D01*
X153590667Y-64042699D02*
X153924000Y-65042699D01*
X153924000Y-65042699D02*
X154257333Y-64042699D01*
X145829304Y-64064918D02*
X145734066Y-64017299D01*
X145734066Y-64017299D02*
X145591209Y-64017299D01*
X145591209Y-64017299D02*
X145448352Y-64064918D01*
X145448352Y-64064918D02*
X145353114Y-64160156D01*
X145353114Y-64160156D02*
X145305495Y-64255394D01*
X145305495Y-64255394D02*
X145257876Y-64445870D01*
X145257876Y-64445870D02*
X145257876Y-64588727D01*
X145257876Y-64588727D02*
X145305495Y-64779203D01*
X145305495Y-64779203D02*
X145353114Y-64874441D01*
X145353114Y-64874441D02*
X145448352Y-64969680D01*
X145448352Y-64969680D02*
X145591209Y-65017299D01*
X145591209Y-65017299D02*
X145686447Y-65017299D01*
X145686447Y-65017299D02*
X145829304Y-64969680D01*
X145829304Y-64969680D02*
X145876923Y-64922060D01*
X145876923Y-64922060D02*
X145876923Y-64588727D01*
X145876923Y-64588727D02*
X145686447Y-64588727D01*
X148336038Y-63426213D02*
X148945562Y-63426213D01*
X148640800Y-63730975D02*
X148640800Y-63121451D01*
X147994905Y-56080829D02*
X147994905Y-56890352D01*
X147994905Y-56890352D02*
X148042524Y-56985590D01*
X148042524Y-56985590D02*
X148090143Y-57033210D01*
X148090143Y-57033210D02*
X148185381Y-57080829D01*
X148185381Y-57080829D02*
X148375857Y-57080829D01*
X148375857Y-57080829D02*
X148471095Y-57033210D01*
X148471095Y-57033210D02*
X148518714Y-56985590D01*
X148518714Y-56985590D02*
X148566333Y-56890352D01*
X148566333Y-56890352D02*
X148566333Y-56080829D01*
X148994905Y-57033210D02*
X149137762Y-57080829D01*
X149137762Y-57080829D02*
X149375857Y-57080829D01*
X149375857Y-57080829D02*
X149471095Y-57033210D01*
X149471095Y-57033210D02*
X149518714Y-56985590D01*
X149518714Y-56985590D02*
X149566333Y-56890352D01*
X149566333Y-56890352D02*
X149566333Y-56795114D01*
X149566333Y-56795114D02*
X149518714Y-56699876D01*
X149518714Y-56699876D02*
X149471095Y-56652257D01*
X149471095Y-56652257D02*
X149375857Y-56604638D01*
X149375857Y-56604638D02*
X149185381Y-56557019D01*
X149185381Y-56557019D02*
X149090143Y-56509400D01*
X149090143Y-56509400D02*
X149042524Y-56461781D01*
X149042524Y-56461781D02*
X148994905Y-56366543D01*
X148994905Y-56366543D02*
X148994905Y-56271305D01*
X148994905Y-56271305D02*
X149042524Y-56176067D01*
X149042524Y-56176067D02*
X149090143Y-56128448D01*
X149090143Y-56128448D02*
X149185381Y-56080829D01*
X149185381Y-56080829D02*
X149423476Y-56080829D01*
X149423476Y-56080829D02*
X149566333Y-56128448D01*
X150328238Y-56557019D02*
X150471095Y-56604638D01*
X150471095Y-56604638D02*
X150518714Y-56652257D01*
X150518714Y-56652257D02*
X150566333Y-56747495D01*
X150566333Y-56747495D02*
X150566333Y-56890352D01*
X150566333Y-56890352D02*
X150518714Y-56985590D01*
X150518714Y-56985590D02*
X150471095Y-57033210D01*
X150471095Y-57033210D02*
X150375857Y-57080829D01*
X150375857Y-57080829D02*
X149994905Y-57080829D01*
X149994905Y-57080829D02*
X149994905Y-56080829D01*
X149994905Y-56080829D02*
X150328238Y-56080829D01*
X150328238Y-56080829D02*
X150423476Y-56128448D01*
X150423476Y-56128448D02*
X150471095Y-56176067D01*
X150471095Y-56176067D02*
X150518714Y-56271305D01*
X150518714Y-56271305D02*
X150518714Y-56366543D01*
X150518714Y-56366543D02*
X150471095Y-56461781D01*
X150471095Y-56461781D02*
X150423476Y-56509400D01*
X150423476Y-56509400D02*
X150328238Y-56557019D01*
X150328238Y-56557019D02*
X149994905Y-56557019D01*
X151518714Y-57080829D02*
X150947286Y-57080829D01*
X151233000Y-57080829D02*
X151233000Y-56080829D01*
X151233000Y-56080829D02*
X151137762Y-56223686D01*
X151137762Y-56223686D02*
X151042524Y-56318924D01*
X151042524Y-56318924D02*
X150947286Y-56366543D01*
X149809238Y-63430533D02*
X150418762Y-63430533D01*
D11*
%TO.C,V*%
X152004800Y-63887880D02*
X153404800Y-63887880D01*
X152004800Y-65287880D02*
X152004800Y-63887880D01*
X153404800Y-63887880D02*
X153404800Y-65287880D01*
X153404800Y-65287880D02*
X152004800Y-65287880D01*
%TO.C,R1*%
X151486841Y-63880000D02*
X151179559Y-63880000D01*
X151486841Y-63120000D02*
X151179559Y-63120000D01*
%TO.C,G*%
X146061200Y-63887880D02*
X147461200Y-63887880D01*
X146061200Y-65287880D02*
X146061200Y-63887880D01*
X147461200Y-63887880D02*
X147461200Y-65287880D01*
X147461200Y-65287880D02*
X146061200Y-65287880D01*
%TO.C,+*%
X148042400Y-63887880D02*
X149442400Y-63887880D01*
X148042400Y-65287880D02*
X148042400Y-63887880D01*
X149442400Y-63887880D02*
X149442400Y-65287880D01*
X149442400Y-65287880D02*
X148042400Y-65287880D01*
%TO.C,USB1*%
X154433000Y-59786600D02*
X154433000Y-57786600D01*
X145033000Y-59786600D02*
X145033000Y-57786600D01*
%TO.C,-*%
X150023600Y-63887880D02*
X151423600Y-63887880D01*
X150023600Y-65287880D02*
X150023600Y-63887880D01*
X151423600Y-63887880D02*
X151423600Y-65287880D01*
X151423600Y-65287880D02*
X150023600Y-65287880D01*
%TO.C,R2*%
X147575241Y-63880000D02*
X147267959Y-63880000D01*
X147575241Y-63120000D02*
X147267959Y-63120000D01*
%TD*%
%LPC*%
D12*
%TO.C,V*%
X152704800Y-64587880D03*
%TD*%
D13*
%TO.C,R1*%
X151843200Y-63500000D03*
X150823200Y-63500000D03*
%TD*%
D12*
%TO.C,G*%
X146761200Y-64587880D03*
%TD*%
%TO.C,+*%
X148742400Y-64587880D03*
%TD*%
D14*
%TO.C,USB1*%
X152623000Y-60486600D03*
X146843000Y-60486600D03*
D15*
X152983000Y-61931600D03*
X152183000Y-61931600D03*
D16*
X150983000Y-61931600D03*
X149983000Y-61931600D03*
X149483000Y-61931600D03*
X148483000Y-61931600D03*
D15*
X147283000Y-61931600D03*
X146483000Y-61931600D03*
X146483000Y-61931600D03*
X147283000Y-61931600D03*
D16*
X147983000Y-61931600D03*
X148983000Y-61931600D03*
X150483000Y-61931600D03*
X151483000Y-61931600D03*
D15*
X152183000Y-61931600D03*
X152983000Y-61931600D03*
D17*
X154053000Y-61016600D03*
D18*
X154053000Y-56836600D03*
D17*
X145413000Y-61016600D03*
D18*
X145413000Y-56836600D03*
%TD*%
D12*
%TO.C,-*%
X150723600Y-64587880D03*
%TD*%
D13*
%TO.C,R2*%
X147931600Y-63500000D03*
X146911600Y-63500000D03*
%TD*%
%LPD*%
M02*
