%TF.GenerationSoftware,KiCad,Pcbnew,7.0.7*%
%TF.CreationDate,2023-08-25T12:50:39-04:00*%
%TF.ProjectId,uC breakout,75432062-7265-4616-9b6f-75742e6b6963,rev?*%
%TF.SameCoordinates,Original*%
%TF.FileFunction,Copper,L1,Top*%
%TF.FilePolarity,Positive*%
%FSLAX46Y46*%
G04 Gerber Fmt 4.6, Leading zero omitted, Abs format (unit mm)*
G04 Created by KiCad (PCBNEW 7.0.7) date 2023-08-25 12:50:39*
%MOMM*%
%LPD*%
G01*
G04 APERTURE LIST*
G04 Aperture macros list*
%AMRoundRect*
0 Rectangle with rounded corners*
0 $1 Rounding radius*
0 $2 $3 $4 $5 $6 $7 $8 $9 X,Y pos of 4 corners*
0 Add a 4 corners polygon primitive as box body*
4,1,4,$2,$3,$4,$5,$6,$7,$8,$9,$2,$3,0*
0 Add four circle primitives for the rounded corners*
1,1,$1+$1,$2,$3*
1,1,$1+$1,$4,$5*
1,1,$1+$1,$6,$7*
1,1,$1+$1,$8,$9*
0 Add four rect primitives between the rounded corners*
20,1,$1+$1,$2,$3,$4,$5,0*
20,1,$1+$1,$4,$5,$6,$7,0*
20,1,$1+$1,$6,$7,$8,$9,0*
20,1,$1+$1,$8,$9,$2,$3,0*%
G04 Aperture macros list end*
%TA.AperFunction,SMDPad,CuDef*%
%ADD10R,1.000000X1.000000*%
%TD*%
%TA.AperFunction,SMDPad,CuDef*%
%ADD11RoundRect,0.135000X0.135000X0.185000X-0.135000X0.185000X-0.135000X-0.185000X0.135000X-0.185000X0*%
%TD*%
%TA.AperFunction,SMDPad,CuDef*%
%ADD12R,0.600000X1.450000*%
%TD*%
%TA.AperFunction,SMDPad,CuDef*%
%ADD13R,0.300000X1.450000*%
%TD*%
%TA.AperFunction,ComponentPad*%
%ADD14O,1.000000X2.100000*%
%TD*%
%TA.AperFunction,ComponentPad*%
%ADD15O,1.000000X1.600000*%
%TD*%
%TA.AperFunction,ViaPad*%
%ADD16C,0.400000*%
%TD*%
%TA.AperFunction,Conductor*%
%ADD17C,0.250000*%
%TD*%
%TA.AperFunction,Conductor*%
%ADD18C,0.300000*%
%TD*%
G04 APERTURE END LIST*
D10*
%TO.P,V,1,1*%
%TO.N,VCC*%
X152704800Y-64587880D03*
%TD*%
D11*
%TO.P,R1,1*%
%TO.N,GND*%
X151843200Y-63500000D03*
%TO.P,R1,2*%
%TO.N,Net-(R1-Pad2)*%
X150823200Y-63500000D03*
%TD*%
D10*
%TO.P,G,1,1*%
%TO.N,GND*%
X146761200Y-64587880D03*
%TD*%
%TO.P,+,1,1*%
%TO.N,Net-(USB1-PadA6)*%
X148742400Y-64587880D03*
%TD*%
D12*
%TO.P,USB1,A1,GND*%
%TO.N,GND*%
X152983000Y-61931600D03*
%TO.P,USB1,A4,VBUS*%
%TO.N,VCC*%
X152183000Y-61931600D03*
D13*
%TO.P,USB1,A5,CC1*%
%TO.N,Net-(R1-Pad2)*%
X150983000Y-61931600D03*
%TO.P,USB1,A6,D+*%
%TO.N,Net-(+1-Pad1)*%
X149983000Y-61931600D03*
%TO.P,USB1,A7,D-*%
%TO.N,Net-(-1-Pad1)*%
X149483000Y-61931600D03*
%TO.P,USB1,A8,SBU1*%
%TO.N,Net-(B1-Pad1)*%
X148483000Y-61931600D03*
D12*
%TO.P,USB1,A9,VBUS*%
%TO.N,VCC*%
X147283000Y-61931600D03*
%TO.P,USB1,A12,GND*%
%TO.N,GND*%
X146483000Y-61931600D03*
%TO.P,USB1,B1,GND*%
X146483000Y-61931600D03*
%TO.P,USB1,B4,VBUS*%
%TO.N,VCC*%
X147283000Y-61931600D03*
D13*
%TO.P,USB1,B5,CC2*%
%TO.N,Net-(R2-Pad1)*%
X147983000Y-61931600D03*
%TO.P,USB1,B6,D+*%
%TO.N,Net-(+1-Pad1)*%
X148983000Y-61931600D03*
%TO.P,USB1,B7,D-*%
%TO.N,Net-(-1-Pad1)*%
X150483000Y-61931600D03*
%TO.P,USB1,B8,SBU2*%
%TO.N,Net-(B2-Pad1)*%
X151483000Y-61931600D03*
D12*
%TO.P,USB1,B9,VBUS*%
%TO.N,VCC*%
X152183000Y-61931600D03*
%TO.P,USB1,B12,GND*%
%TO.N,GND*%
X152983000Y-61931600D03*
D14*
%TO.P,USB1,S1,SHIELD*%
%TO.N,unconnected-(USB1-PadS1)*%
X154053000Y-61016600D03*
D15*
X154053000Y-56836600D03*
D14*
X145413000Y-61016600D03*
D15*
X145413000Y-56836600D03*
%TD*%
D10*
%TO.P,-,1,1*%
%TO.N,Net-(USB1-PadA7)*%
X150723600Y-64587880D03*
%TD*%
D11*
%TO.P,R2,1*%
%TO.N,Net-(R2-Pad1)*%
X147931600Y-63500000D03*
%TO.P,R2,2*%
%TO.N,GND*%
X146911600Y-63500000D03*
%TD*%
D16*
%TO.N,GND*%
X148745590Y-57221290D03*
X149712920Y-64662290D03*
X151721990Y-58709490D03*
X145397140Y-62876450D03*
X154028700Y-58709490D03*
X152689320Y-59528000D03*
X145471550Y-58709490D03*
X149712920Y-60346510D03*
X146810930Y-57146880D03*
X151721990Y-64668400D03*
X149733000Y-58560670D03*
X145397140Y-64513470D03*
X147778260Y-64668400D03*
X154028700Y-64587880D03*
X153954290Y-62876450D03*
X147778260Y-58783900D03*
X150754660Y-57221290D03*
X146662110Y-59602410D03*
X152689320Y-57221290D03*
%TO.N,Net-(B1-Pad1)*%
X149117640Y-59974460D03*
%TO.N,Net-(B2-Pad1)*%
X151296229Y-59953761D03*
%TO.N,Net-(R1-Pad2)*%
X150308200Y-59974460D03*
%TO.N,Net-(R2-Pad1)*%
X148106721Y-59976651D03*
%TD*%
D17*
%TO.N,Net-(+1-Pad1)*%
X149983000Y-60906600D02*
X149983000Y-61931600D01*
X148983000Y-61931600D02*
X148983000Y-60906600D01*
X149958000Y-60881600D02*
X149983000Y-60906600D01*
X149121770Y-63254267D02*
X149121770Y-64208510D01*
X148983000Y-61931600D02*
X148983000Y-63115497D01*
X148983000Y-60906600D02*
X149008000Y-60881600D01*
X148983000Y-63115497D02*
X149121770Y-63254267D01*
X149008000Y-60881600D02*
X149958000Y-60881600D01*
X149121770Y-64208510D02*
X148742400Y-64587880D01*
%TO.N,Net-(-1-Pad1)*%
X150483000Y-62956600D02*
X150458000Y-62981600D01*
X149966890Y-63831170D02*
X149966890Y-62981600D01*
X149966890Y-62981600D02*
X149508000Y-62981600D01*
X149483000Y-62956600D02*
X149483000Y-61931600D01*
X149508000Y-62981600D02*
X149483000Y-62956600D01*
X150458000Y-62981600D02*
X149966890Y-62981600D01*
X150483000Y-61931600D02*
X150483000Y-62956600D01*
X150723600Y-64587880D02*
X149966890Y-63831170D01*
%TO.N,Net-(B1-Pad1)*%
X148508000Y-60732920D02*
X148508000Y-61906600D01*
X149117640Y-60123280D02*
X148508000Y-60732920D01*
X149117640Y-59974460D02*
X149117640Y-60123280D01*
X148508000Y-61906600D02*
X148483000Y-61931600D01*
%TO.N,Net-(B2-Pad1)*%
X151296229Y-60698143D02*
X151296229Y-59953761D01*
X151458000Y-60859914D02*
X151296229Y-60698143D01*
X151483000Y-61931600D02*
X151458000Y-61906600D01*
X151458000Y-61906600D02*
X151458000Y-60859914D01*
D18*
%TO.N,VCC*%
X152183000Y-61931600D02*
X152183000Y-61105160D01*
X151945220Y-60867380D02*
X151945220Y-59751230D01*
X151573170Y-59379180D02*
X147927080Y-59379180D01*
X152704800Y-63246000D02*
X152704800Y-64587880D01*
X147555030Y-60792970D02*
X147483000Y-60865000D01*
X151945220Y-59751230D02*
X151573170Y-59379180D01*
X152183000Y-61931600D02*
X152183000Y-62724200D01*
X152183000Y-62724200D02*
X152704800Y-63246000D01*
X147483000Y-60865000D02*
X147483000Y-61731600D01*
X152183000Y-61105160D02*
X151945220Y-60867380D01*
X147555030Y-59751230D02*
X147555030Y-60792970D01*
X147927080Y-59379180D02*
X147555030Y-59751230D01*
X147483000Y-61731600D02*
X147283000Y-61931600D01*
D17*
%TO.N,Net-(R1-Pad2)*%
X150958000Y-60996310D02*
X150308200Y-60346510D01*
X150983000Y-61931600D02*
X150958000Y-61906600D01*
X150958000Y-61906600D02*
X150958000Y-60996310D01*
X150308200Y-60346510D02*
X150308200Y-59974460D01*
X150983000Y-61931600D02*
X150983000Y-63340200D01*
X150983000Y-63340200D02*
X150823200Y-63500000D01*
%TO.N,Net-(R2-Pad1)*%
X148078091Y-59976651D02*
X148106721Y-59976651D01*
X148075900Y-59974460D02*
X148078091Y-59976651D01*
X147983000Y-61931600D02*
X147983000Y-61036752D01*
X147983000Y-63469530D02*
X147980800Y-63471730D01*
X148058000Y-60025372D02*
X148106721Y-59976651D01*
X147983000Y-61931600D02*
X147983000Y-63448600D01*
X148058000Y-60961752D02*
X148058000Y-60025372D01*
X147983000Y-63448600D02*
X147931600Y-63500000D01*
X147983000Y-61036752D02*
X148058000Y-60961752D01*
%TD*%
%TA.AperFunction,Conductor*%
%TO.N,GND*%
G36*
X146292593Y-60668800D02*
G01*
X146303964Y-60689106D01*
X146340300Y-60776830D01*
X146340302Y-60776834D01*
X146394398Y-60847333D01*
X146409116Y-60888895D01*
X146412593Y-60888895D01*
X146442265Y-60904506D01*
X146552767Y-60989298D01*
X146621886Y-61017928D01*
X146668411Y-61057663D01*
X146683000Y-61109391D01*
X146683000Y-62865908D01*
X146701106Y-62901445D01*
X146691535Y-62961877D01*
X146648270Y-63005142D01*
X146645166Y-63006656D01*
X146581489Y-63036350D01*
X146497949Y-63119890D01*
X146448025Y-63226952D01*
X146448023Y-63226959D01*
X146441600Y-63275746D01*
X146441600Y-63299998D01*
X146441601Y-63300000D01*
X147012600Y-63300000D01*
X147070791Y-63318907D01*
X147106755Y-63368407D01*
X147111600Y-63399000D01*
X147111600Y-63961000D01*
X147092693Y-64019191D01*
X147043193Y-64055155D01*
X147012600Y-64060000D01*
X146961201Y-64060000D01*
X146961200Y-64060001D01*
X146961200Y-64387879D01*
X146961201Y-64387880D01*
X147461199Y-64387880D01*
X147461200Y-64387879D01*
X147461200Y-64068177D01*
X147460734Y-64063445D01*
X147473847Y-64003682D01*
X147519584Y-63963040D01*
X147580475Y-63957044D01*
X147601096Y-63964019D01*
X147708424Y-64014067D01*
X147708425Y-64014067D01*
X147708427Y-64014068D01*
X147757284Y-64020500D01*
X147942900Y-64020500D01*
X148001091Y-64039407D01*
X148037055Y-64088907D01*
X148041900Y-64119500D01*
X148041900Y-65107626D01*
X148041901Y-65107638D01*
X148053494Y-65165916D01*
X148053533Y-65166111D01*
X148097848Y-65232432D01*
X148097851Y-65232434D01*
X148102303Y-65236886D01*
X148130080Y-65291403D01*
X148120509Y-65351835D01*
X148077244Y-65395100D01*
X148032299Y-65405890D01*
X147470581Y-65405890D01*
X147412390Y-65386983D01*
X147376426Y-65337483D01*
X147376426Y-65276297D01*
X147400577Y-65236886D01*
X147405393Y-65232069D01*
X147449596Y-65165916D01*
X147461199Y-65107580D01*
X147461200Y-65107577D01*
X147461200Y-64787881D01*
X147461199Y-64787880D01*
X146061201Y-64787880D01*
X146061200Y-64787881D01*
X146061200Y-65107580D01*
X146072803Y-65165916D01*
X146117006Y-65232069D01*
X146121823Y-65236886D01*
X146149600Y-65291403D01*
X146140029Y-65351835D01*
X146096764Y-65395100D01*
X146051819Y-65405890D01*
X144701700Y-65405890D01*
X144643509Y-65386983D01*
X144607545Y-65337483D01*
X144602700Y-65306890D01*
X144602700Y-64387879D01*
X146061200Y-64387879D01*
X146061201Y-64387880D01*
X146561199Y-64387880D01*
X146561200Y-64387879D01*
X146561200Y-63946880D01*
X146580107Y-63888689D01*
X146629607Y-63852725D01*
X146660200Y-63847880D01*
X146711599Y-63847880D01*
X146711600Y-63847879D01*
X146711600Y-63700001D01*
X146711599Y-63700000D01*
X146441602Y-63700000D01*
X146441600Y-63700001D01*
X146441601Y-63724250D01*
X146441601Y-63724258D01*
X146448407Y-63775960D01*
X146437256Y-63836121D01*
X146392873Y-63878237D01*
X146350254Y-63887880D01*
X146241499Y-63887880D01*
X146183163Y-63899483D01*
X146117010Y-63943686D01*
X146117006Y-63943690D01*
X146072803Y-64009843D01*
X146061200Y-64068179D01*
X146061200Y-64387879D01*
X144602700Y-64387879D01*
X144602700Y-61942781D01*
X144621607Y-61884590D01*
X144671107Y-61848626D01*
X144732293Y-61848626D01*
X144781793Y-61884590D01*
X144786027Y-61891407D01*
X144788181Y-61894527D01*
X144788182Y-61894530D01*
X144884817Y-62034529D01*
X145012148Y-62147334D01*
X145162775Y-62226390D01*
X145327944Y-62267100D01*
X145327947Y-62267100D01*
X145498053Y-62267100D01*
X145498056Y-62267100D01*
X145663225Y-62226390D01*
X145813852Y-62147334D01*
X145818347Y-62143351D01*
X145874442Y-62118913D01*
X145934186Y-62132114D01*
X145974761Y-62177911D01*
X145983000Y-62217451D01*
X145983000Y-62676300D01*
X145994603Y-62734636D01*
X146038806Y-62800789D01*
X146038810Y-62800793D01*
X146104963Y-62844996D01*
X146163299Y-62856599D01*
X146163303Y-62856600D01*
X146282999Y-62856600D01*
X146283000Y-62856598D01*
X146283000Y-62131601D01*
X146282999Y-62131600D01*
X146062808Y-62131600D01*
X146004617Y-62112693D01*
X145968653Y-62063193D01*
X145968653Y-62002007D01*
X145981331Y-61976364D01*
X146037818Y-61894530D01*
X146075376Y-61795494D01*
X146113691Y-61747789D01*
X146167944Y-61731600D01*
X146282999Y-61731600D01*
X146283000Y-61731598D01*
X146283000Y-61006600D01*
X146212500Y-61006600D01*
X146154309Y-60987693D01*
X146118345Y-60938193D01*
X146113500Y-60907600D01*
X146113500Y-60726991D01*
X146132407Y-60668800D01*
X146181907Y-60632836D01*
X146243093Y-60632836D01*
X146292593Y-60668800D01*
G37*
%TD.AperFunction*%
%TA.AperFunction,Conductor*%
G36*
X149626363Y-63843346D02*
G01*
X149641895Y-63875912D01*
X149645319Y-63888689D01*
X149648244Y-63899607D01*
X149649179Y-63903822D01*
X149656301Y-63944215D01*
X149657054Y-63945518D01*
X149666944Y-63969394D01*
X149667333Y-63970849D01*
X149667336Y-63970854D01*
X149690322Y-64003682D01*
X149690861Y-64004451D01*
X149693178Y-64008088D01*
X149711261Y-64039407D01*
X149713696Y-64043625D01*
X149745120Y-64069993D01*
X149748306Y-64072912D01*
X149871854Y-64196460D01*
X149994103Y-64318708D01*
X150021881Y-64373225D01*
X150023100Y-64388712D01*
X150023100Y-65107626D01*
X150023101Y-65107638D01*
X150034694Y-65165916D01*
X150034733Y-65166111D01*
X150079048Y-65232432D01*
X150079051Y-65232434D01*
X150083503Y-65236886D01*
X150111280Y-65291403D01*
X150101709Y-65351835D01*
X150058444Y-65395100D01*
X150013499Y-65405890D01*
X149452501Y-65405890D01*
X149394310Y-65386983D01*
X149358346Y-65337483D01*
X149358346Y-65276297D01*
X149382497Y-65236886D01*
X149386945Y-65232436D01*
X149386952Y-65232432D01*
X149431267Y-65166111D01*
X149442900Y-65107628D01*
X149442900Y-64280702D01*
X149446273Y-64255081D01*
X149451033Y-64237317D01*
X149447457Y-64196444D01*
X149447270Y-64192144D01*
X149447270Y-63901537D01*
X149466177Y-63843346D01*
X149515677Y-63807382D01*
X149576863Y-63807382D01*
X149626363Y-63843346D01*
G37*
%TD.AperFunction*%
%TA.AperFunction,Conductor*%
G36*
X152002391Y-63318907D02*
G01*
X152038355Y-63368407D01*
X152043200Y-63399000D01*
X152043200Y-63938809D01*
X152026516Y-63993810D01*
X152015934Y-64009646D01*
X152015932Y-64009652D01*
X152004301Y-64068121D01*
X152004300Y-64068133D01*
X152004300Y-65107626D01*
X152004301Y-65107638D01*
X152015894Y-65165916D01*
X152015933Y-65166111D01*
X152060248Y-65232432D01*
X152060251Y-65232434D01*
X152064703Y-65236886D01*
X152092480Y-65291403D01*
X152082909Y-65351835D01*
X152039644Y-65395100D01*
X151994699Y-65405890D01*
X151433701Y-65405890D01*
X151375510Y-65386983D01*
X151339546Y-65337483D01*
X151339546Y-65276297D01*
X151363697Y-65236886D01*
X151368145Y-65232436D01*
X151368152Y-65232432D01*
X151412467Y-65166111D01*
X151424100Y-65107628D01*
X151424100Y-64077552D01*
X151443007Y-64019361D01*
X151492507Y-63983397D01*
X151553693Y-63983397D01*
X151564940Y-63987828D01*
X151620159Y-64013577D01*
X151620158Y-64013577D01*
X151643198Y-64016610D01*
X151643200Y-64016609D01*
X151643200Y-63399000D01*
X151662107Y-63340809D01*
X151711607Y-63304845D01*
X151742200Y-63300000D01*
X151944200Y-63300000D01*
X152002391Y-63318907D01*
G37*
%TD.AperFunction*%
%TA.AperFunction,Conductor*%
G36*
X153317795Y-60651711D02*
G01*
X153349765Y-60703880D01*
X153352500Y-60726991D01*
X153352500Y-60907600D01*
X153333593Y-60965791D01*
X153284093Y-61001755D01*
X153253500Y-61006600D01*
X153183000Y-61006600D01*
X153183000Y-62856598D01*
X153183001Y-62856600D01*
X153302697Y-62856600D01*
X153302700Y-62856599D01*
X153361036Y-62844996D01*
X153427189Y-62800793D01*
X153427193Y-62800789D01*
X153471396Y-62734636D01*
X153482999Y-62676300D01*
X153483000Y-62676297D01*
X153483000Y-62217451D01*
X153501907Y-62159260D01*
X153551407Y-62123296D01*
X153612593Y-62123296D01*
X153647652Y-62143351D01*
X153652148Y-62147334D01*
X153802775Y-62226390D01*
X153967944Y-62267100D01*
X153967947Y-62267100D01*
X154138053Y-62267100D01*
X154138056Y-62267100D01*
X154303225Y-62226390D01*
X154453852Y-62147334D01*
X154581183Y-62034529D01*
X154666735Y-61910585D01*
X154715351Y-61873436D01*
X154776519Y-61871958D01*
X154826873Y-61906715D01*
X154847181Y-61964432D01*
X154847210Y-61966824D01*
X154847210Y-65306890D01*
X154828303Y-65365081D01*
X154778803Y-65401045D01*
X154748210Y-65405890D01*
X153414901Y-65405890D01*
X153356710Y-65386983D01*
X153320746Y-65337483D01*
X153320746Y-65276297D01*
X153344897Y-65236886D01*
X153349345Y-65232436D01*
X153349352Y-65232432D01*
X153393667Y-65166111D01*
X153405300Y-65107628D01*
X153405300Y-64068132D01*
X153403682Y-64060000D01*
X153395825Y-64020500D01*
X153393667Y-64009649D01*
X153349352Y-63943328D01*
X153342589Y-63938809D01*
X153283033Y-63899014D01*
X153283031Y-63899013D01*
X153283028Y-63899012D01*
X153283027Y-63899012D01*
X153224558Y-63887381D01*
X153224548Y-63887380D01*
X153224547Y-63887380D01*
X153154300Y-63887380D01*
X153096109Y-63868473D01*
X153060145Y-63818973D01*
X153055300Y-63788380D01*
X153055300Y-63292618D01*
X153057407Y-63272302D01*
X153057417Y-63272253D01*
X153059843Y-63260685D01*
X153055679Y-63227288D01*
X153055300Y-63221162D01*
X153055300Y-63216961D01*
X153055300Y-63216960D01*
X153051711Y-63195457D01*
X153045373Y-63144608D01*
X153045372Y-63144606D01*
X153045372Y-63144603D01*
X153043280Y-63137577D01*
X153040891Y-63130616D01*
X153016499Y-63085545D01*
X152993998Y-63039516D01*
X152989730Y-63033538D01*
X152985221Y-63027745D01*
X152965596Y-63009679D01*
X152947513Y-62993032D01*
X152852390Y-62897909D01*
X152811996Y-62857514D01*
X152784219Y-62802998D01*
X152783000Y-62787511D01*
X152783000Y-62131601D01*
X152782999Y-62131600D01*
X152782500Y-62131600D01*
X152724309Y-62112693D01*
X152688345Y-62063193D01*
X152683500Y-62032600D01*
X152683500Y-61830600D01*
X152702407Y-61772409D01*
X152751907Y-61736445D01*
X152782500Y-61731600D01*
X152782999Y-61731600D01*
X152783000Y-61731599D01*
X152783000Y-61109391D01*
X152801907Y-61051200D01*
X152844112Y-61017928D01*
X152913233Y-60989298D01*
X153023733Y-60904507D01*
X153055989Y-60893085D01*
X153055989Y-60877007D01*
X153071602Y-60847333D01*
X153125697Y-60776834D01*
X153125696Y-60776834D01*
X153125698Y-60776833D01*
X153162035Y-60689106D01*
X153201772Y-60642580D01*
X153261267Y-60628296D01*
X153317795Y-60651711D01*
G37*
%TD.AperFunction*%
%TA.AperFunction,Conductor*%
G36*
X149883754Y-59748587D02*
G01*
X149919718Y-59798087D01*
X149923344Y-59844167D01*
X149905089Y-59959424D01*
X149902708Y-59974460D01*
X149921207Y-60091262D01*
X149922554Y-60099763D01*
X149922555Y-60099767D01*
X149944318Y-60142479D01*
X149971776Y-60196368D01*
X149971909Y-60196628D01*
X149982700Y-60241574D01*
X149982700Y-60330135D01*
X149982512Y-60334437D01*
X149980234Y-60360486D01*
X149978936Y-60375316D01*
X149989554Y-60414946D01*
X149990489Y-60419163D01*
X149994147Y-60439909D01*
X149985632Y-60500499D01*
X149943129Y-60544512D01*
X149896651Y-60556100D01*
X149384153Y-60556100D01*
X149325962Y-60537193D01*
X149289998Y-60487693D01*
X149289998Y-60426507D01*
X149314148Y-60387098D01*
X149321537Y-60379709D01*
X149336234Y-60365011D01*
X149339399Y-60362110D01*
X149370834Y-60335735D01*
X149391352Y-60300194D01*
X149393657Y-60296576D01*
X149417194Y-60262964D01*
X149417583Y-60261508D01*
X149427472Y-60237633D01*
X149428228Y-60236325D01*
X149428228Y-60236321D01*
X149429993Y-60233266D01*
X149445539Y-60213009D01*
X149445685Y-60212806D01*
X149445690Y-60212802D01*
X149503286Y-60099764D01*
X149523132Y-59974460D01*
X149520751Y-59959424D01*
X149502496Y-59844167D01*
X149512067Y-59783735D01*
X149555332Y-59740470D01*
X149600277Y-59729680D01*
X149825563Y-59729680D01*
X149883754Y-59748587D01*
G37*
%TD.AperFunction*%
%TA.AperFunction,Conductor*%
G36*
X154806401Y-55603677D02*
G01*
X154842365Y-55653177D01*
X154847210Y-55683770D01*
X154847210Y-56136375D01*
X154828303Y-56194566D01*
X154778803Y-56230530D01*
X154717617Y-56230530D01*
X154668117Y-56194566D01*
X154666735Y-56192614D01*
X154581183Y-56068671D01*
X154453852Y-55955866D01*
X154303225Y-55876810D01*
X154303224Y-55876809D01*
X154303223Y-55876809D01*
X154138058Y-55836100D01*
X154138056Y-55836100D01*
X153967944Y-55836100D01*
X153967941Y-55836100D01*
X153802776Y-55876809D01*
X153652146Y-55955867D01*
X153524818Y-56068669D01*
X153524816Y-56068672D01*
X153428182Y-56208670D01*
X153367860Y-56367728D01*
X153352500Y-56494218D01*
X153352500Y-57178981D01*
X153366324Y-57292822D01*
X153367860Y-57305472D01*
X153428182Y-57464530D01*
X153524817Y-57604529D01*
X153652148Y-57717334D01*
X153802775Y-57796390D01*
X153967944Y-57837100D01*
X153967947Y-57837100D01*
X154138053Y-57837100D01*
X154138056Y-57837100D01*
X154303225Y-57796390D01*
X154453852Y-57717334D01*
X154581183Y-57604529D01*
X154666735Y-57480585D01*
X154715351Y-57443436D01*
X154776519Y-57441958D01*
X154826873Y-57476715D01*
X154847181Y-57534432D01*
X154847210Y-57536824D01*
X154847210Y-60066375D01*
X154828303Y-60124566D01*
X154778803Y-60160530D01*
X154717617Y-60160530D01*
X154668117Y-60124566D01*
X154666735Y-60122614D01*
X154656531Y-60107831D01*
X154581183Y-59998671D01*
X154556327Y-59976651D01*
X154453853Y-59885867D01*
X154453852Y-59885866D01*
X154303225Y-59806810D01*
X154303224Y-59806809D01*
X154303223Y-59806809D01*
X154138058Y-59766100D01*
X154138056Y-59766100D01*
X153967944Y-59766100D01*
X153967941Y-59766100D01*
X153802776Y-59806809D01*
X153652146Y-59885867D01*
X153524818Y-59998669D01*
X153524816Y-59998672D01*
X153428182Y-60138670D01*
X153367859Y-60297730D01*
X153366427Y-60303542D01*
X153365110Y-60303217D01*
X153342139Y-60352635D01*
X153288662Y-60382364D01*
X153227923Y-60374981D01*
X153183124Y-60333308D01*
X153178189Y-60323092D01*
X153147465Y-60248917D01*
X153125699Y-60196369D01*
X153125698Y-60196368D01*
X153125698Y-60196367D01*
X153033451Y-60076149D01*
X152913233Y-59983902D01*
X152895725Y-59976650D01*
X152773238Y-59925914D01*
X152773240Y-59925914D01*
X152773236Y-59925913D01*
X152773234Y-59925912D01*
X152773232Y-59925912D01*
X152660720Y-59911100D01*
X152585280Y-59911100D01*
X152585279Y-59911100D01*
X152472767Y-59925912D01*
X152472759Y-59925914D01*
X152432605Y-59942547D01*
X152371609Y-59947348D01*
X152319440Y-59915378D01*
X152296025Y-59858850D01*
X152295720Y-59851083D01*
X152295720Y-59797843D01*
X152297827Y-59777527D01*
X152300262Y-59765915D01*
X152296099Y-59732524D01*
X152295720Y-59726398D01*
X152295720Y-59722184D01*
X152292131Y-59700679D01*
X152288510Y-59671637D01*
X152285793Y-59649837D01*
X152285791Y-59649834D01*
X152283697Y-59642799D01*
X152281311Y-59635846D01*
X152256924Y-59590784D01*
X152234418Y-59544745D01*
X152230168Y-59538792D01*
X152225638Y-59532972D01*
X152187944Y-59498271D01*
X151853971Y-59164299D01*
X151841095Y-59148442D01*
X151834607Y-59138511D01*
X151808055Y-59117845D01*
X151803453Y-59113781D01*
X151800477Y-59110805D01*
X151782730Y-59098134D01*
X151742298Y-59066664D01*
X151735847Y-59063173D01*
X151729238Y-59059941D01*
X151729236Y-59059940D01*
X151680124Y-59045318D01*
X151631658Y-59028680D01*
X151631655Y-59028679D01*
X151624430Y-59027473D01*
X151617125Y-59026563D01*
X151617124Y-59026563D01*
X151617122Y-59026563D01*
X151565939Y-59028680D01*
X147973693Y-59028680D01*
X147953378Y-59026573D01*
X147941765Y-59024138D01*
X147908374Y-59028300D01*
X147902249Y-59028680D01*
X147898036Y-59028680D01*
X147876528Y-59032269D01*
X147825687Y-59038606D01*
X147818655Y-59040699D01*
X147811696Y-59043088D01*
X147766635Y-59067475D01*
X147720597Y-59089981D01*
X147714622Y-59094246D01*
X147708824Y-59098759D01*
X147674122Y-59136455D01*
X147340147Y-59470428D01*
X147324295Y-59483301D01*
X147314365Y-59489789D01*
X147314362Y-59489791D01*
X147293694Y-59516344D01*
X147289635Y-59520942D01*
X147286649Y-59523928D01*
X147273985Y-59541667D01*
X147242513Y-59582104D01*
X147239011Y-59588573D01*
X147235788Y-59595166D01*
X147221168Y-59644275D01*
X147204529Y-59692742D01*
X147203323Y-59699973D01*
X147202413Y-59707277D01*
X147204530Y-59758461D01*
X147204530Y-59865269D01*
X147185623Y-59923460D01*
X147136123Y-59959424D01*
X147074937Y-59959424D01*
X147067645Y-59956733D01*
X146993241Y-59925914D01*
X146993232Y-59925912D01*
X146880720Y-59911100D01*
X146805280Y-59911100D01*
X146805279Y-59911100D01*
X146692767Y-59925912D01*
X146692761Y-59925914D01*
X146552768Y-59983901D01*
X146432551Y-60076147D01*
X146432547Y-60076151D01*
X146340301Y-60196368D01*
X146287810Y-60323092D01*
X146248073Y-60369618D01*
X146188578Y-60383901D01*
X146132050Y-60360486D01*
X146100081Y-60308317D01*
X146098266Y-60298242D01*
X146098140Y-60297730D01*
X146098140Y-60297728D01*
X146037818Y-60138670D01*
X145941183Y-59998671D01*
X145916327Y-59976651D01*
X145813853Y-59885867D01*
X145813852Y-59885866D01*
X145663225Y-59806810D01*
X145663224Y-59806809D01*
X145663223Y-59806809D01*
X145498058Y-59766100D01*
X145498056Y-59766100D01*
X145327944Y-59766100D01*
X145327941Y-59766100D01*
X145162776Y-59806809D01*
X145012146Y-59885867D01*
X144884818Y-59998669D01*
X144884816Y-59998672D01*
X144857249Y-60038610D01*
X144797918Y-60124566D01*
X144784780Y-60143599D01*
X144783158Y-60142479D01*
X144745575Y-60179165D01*
X144685032Y-60188005D01*
X144630855Y-60159570D01*
X144603739Y-60104721D01*
X144602700Y-60090418D01*
X144602700Y-57512781D01*
X144621607Y-57454590D01*
X144671107Y-57418626D01*
X144732293Y-57418626D01*
X144781793Y-57454590D01*
X144786027Y-57461407D01*
X144788181Y-57464527D01*
X144788182Y-57464530D01*
X144884817Y-57604529D01*
X145012148Y-57717334D01*
X145162775Y-57796390D01*
X145327944Y-57837100D01*
X145327947Y-57837100D01*
X145498053Y-57837100D01*
X145498056Y-57837100D01*
X145663225Y-57796390D01*
X145813852Y-57717334D01*
X145941183Y-57604529D01*
X146037818Y-57464530D01*
X146098140Y-57305472D01*
X146113500Y-57178972D01*
X146113500Y-56494228D01*
X146098140Y-56367728D01*
X146037818Y-56208670D01*
X145941183Y-56068671D01*
X145813852Y-55955866D01*
X145663225Y-55876810D01*
X145663224Y-55876809D01*
X145663223Y-55876809D01*
X145498058Y-55836100D01*
X145498056Y-55836100D01*
X145327944Y-55836100D01*
X145327941Y-55836100D01*
X145162776Y-55876809D01*
X145012146Y-55955867D01*
X144884818Y-56068669D01*
X144884816Y-56068671D01*
X144884817Y-56068671D01*
X144797918Y-56194566D01*
X144784780Y-56213599D01*
X144783158Y-56212479D01*
X144745575Y-56249165D01*
X144685032Y-56258005D01*
X144630855Y-56229570D01*
X144603739Y-56174721D01*
X144602700Y-56160418D01*
X144602700Y-55683770D01*
X144621607Y-55625579D01*
X144671107Y-55589615D01*
X144701700Y-55584770D01*
X154748210Y-55584770D01*
X154806401Y-55603677D01*
G37*
%TD.AperFunction*%
%TD*%
M02*
