%TF.GenerationSoftware,KiCad,Pcbnew,7.0.7*%
%TF.CreationDate,2023-08-25T12:50:39-04:00*%
%TF.ProjectId,uC breakout,75432062-7265-4616-9b6f-75742e6b6963,rev?*%
%TF.SameCoordinates,Original*%
%TF.FileFunction,Copper,L2,Bot*%
%TF.FilePolarity,Positive*%
%FSLAX46Y46*%
G04 Gerber Fmt 4.6, Leading zero omitted, Abs format (unit mm)*
G04 Created by KiCad (PCBNEW 7.0.7) date 2023-08-25 12:50:39*
%MOMM*%
%LPD*%
G01*
G04 APERTURE LIST*
%ADD10C,0.135000*%
%TA.AperFunction,NonConductor*%
%ADD11C,0.135000*%
%TD*%
%TA.AperFunction,ComponentPad*%
%ADD12O,1.000000X2.100000*%
%TD*%
%TA.AperFunction,ComponentPad*%
%ADD13O,1.000000X1.600000*%
%TD*%
%TA.AperFunction,SMDPad,CuDef*%
%ADD14R,1.000000X1.000000*%
%TD*%
%TA.AperFunction,ViaPad*%
%ADD15C,0.400000*%
%TD*%
%TA.AperFunction,Conductor*%
%ADD16C,0.250000*%
%TD*%
G04 APERTURE END LIST*
D10*
D11*
X152902048Y-56380630D02*
X152954429Y-56406820D01*
X152954429Y-56406820D02*
X153059191Y-56406820D01*
X153059191Y-56406820D02*
X153111572Y-56380630D01*
X153111572Y-56380630D02*
X153137762Y-56354439D01*
X153137762Y-56354439D02*
X153163953Y-56302058D01*
X153163953Y-56302058D02*
X153163953Y-56144915D01*
X153163953Y-56144915D02*
X153137762Y-56092534D01*
X153137762Y-56092534D02*
X153111572Y-56066344D01*
X153111572Y-56066344D02*
X153059191Y-56040153D01*
X153059191Y-56040153D02*
X152954429Y-56040153D01*
X152954429Y-56040153D02*
X152902048Y-56066344D01*
X152430619Y-56406820D02*
X152430619Y-56118725D01*
X152430619Y-56118725D02*
X152456809Y-56066344D01*
X152456809Y-56066344D02*
X152509190Y-56040153D01*
X152509190Y-56040153D02*
X152613952Y-56040153D01*
X152613952Y-56040153D02*
X152666333Y-56066344D01*
X152430619Y-56380630D02*
X152483000Y-56406820D01*
X152483000Y-56406820D02*
X152613952Y-56406820D01*
X152613952Y-56406820D02*
X152666333Y-56380630D01*
X152666333Y-56380630D02*
X152692524Y-56328249D01*
X152692524Y-56328249D02*
X152692524Y-56275868D01*
X152692524Y-56275868D02*
X152666333Y-56223487D01*
X152666333Y-56223487D02*
X152613952Y-56197296D01*
X152613952Y-56197296D02*
X152483000Y-56197296D01*
X152483000Y-56197296D02*
X152430619Y-56171106D01*
X152194905Y-56380630D02*
X152142524Y-56406820D01*
X152142524Y-56406820D02*
X152037762Y-56406820D01*
X152037762Y-56406820D02*
X151985381Y-56380630D01*
X151985381Y-56380630D02*
X151959190Y-56328249D01*
X151959190Y-56328249D02*
X151959190Y-56302058D01*
X151959190Y-56302058D02*
X151985381Y-56249677D01*
X151985381Y-56249677D02*
X152037762Y-56223487D01*
X152037762Y-56223487D02*
X152116333Y-56223487D01*
X152116333Y-56223487D02*
X152168714Y-56197296D01*
X152168714Y-56197296D02*
X152194905Y-56144915D01*
X152194905Y-56144915D02*
X152194905Y-56118725D01*
X152194905Y-56118725D02*
X152168714Y-56066344D01*
X152168714Y-56066344D02*
X152116333Y-56040153D01*
X152116333Y-56040153D02*
X152037762Y-56040153D01*
X152037762Y-56040153D02*
X151985381Y-56066344D01*
X151487762Y-56040153D02*
X151487762Y-56406820D01*
X151723476Y-56040153D02*
X151723476Y-56328249D01*
X151723476Y-56328249D02*
X151697286Y-56380630D01*
X151697286Y-56380630D02*
X151644905Y-56406820D01*
X151644905Y-56406820D02*
X151566333Y-56406820D01*
X151566333Y-56406820D02*
X151513952Y-56380630D01*
X151513952Y-56380630D02*
X151487762Y-56354439D01*
X150990143Y-56406820D02*
X150990143Y-56118725D01*
X150990143Y-56118725D02*
X151016333Y-56066344D01*
X151016333Y-56066344D02*
X151068714Y-56040153D01*
X151068714Y-56040153D02*
X151173476Y-56040153D01*
X151173476Y-56040153D02*
X151225857Y-56066344D01*
X150990143Y-56380630D02*
X151042524Y-56406820D01*
X151042524Y-56406820D02*
X151173476Y-56406820D01*
X151173476Y-56406820D02*
X151225857Y-56380630D01*
X151225857Y-56380630D02*
X151252048Y-56328249D01*
X151252048Y-56328249D02*
X151252048Y-56275868D01*
X151252048Y-56275868D02*
X151225857Y-56223487D01*
X151225857Y-56223487D02*
X151173476Y-56197296D01*
X151173476Y-56197296D02*
X151042524Y-56197296D01*
X151042524Y-56197296D02*
X150990143Y-56171106D01*
X150649667Y-56406820D02*
X150702048Y-56380630D01*
X150702048Y-56380630D02*
X150728238Y-56328249D01*
X150728238Y-56328249D02*
X150728238Y-55856820D01*
X150204429Y-56380630D02*
X150256810Y-56406820D01*
X150256810Y-56406820D02*
X150361572Y-56406820D01*
X150361572Y-56406820D02*
X150413953Y-56380630D01*
X150413953Y-56380630D02*
X150440143Y-56354439D01*
X150440143Y-56354439D02*
X150466334Y-56302058D01*
X150466334Y-56302058D02*
X150466334Y-56144915D01*
X150466334Y-56144915D02*
X150440143Y-56092534D01*
X150440143Y-56092534D02*
X150413953Y-56066344D01*
X150413953Y-56066344D02*
X150361572Y-56040153D01*
X150361572Y-56040153D02*
X150256810Y-56040153D01*
X150256810Y-56040153D02*
X150204429Y-56066344D01*
X149890143Y-56406820D02*
X149942524Y-56380630D01*
X149942524Y-56380630D02*
X149968714Y-56354439D01*
X149968714Y-56354439D02*
X149994905Y-56302058D01*
X149994905Y-56302058D02*
X149994905Y-56144915D01*
X149994905Y-56144915D02*
X149968714Y-56092534D01*
X149968714Y-56092534D02*
X149942524Y-56066344D01*
X149942524Y-56066344D02*
X149890143Y-56040153D01*
X149890143Y-56040153D02*
X149811571Y-56040153D01*
X149811571Y-56040153D02*
X149759190Y-56066344D01*
X149759190Y-56066344D02*
X149733000Y-56092534D01*
X149733000Y-56092534D02*
X149706809Y-56144915D01*
X149706809Y-56144915D02*
X149706809Y-56302058D01*
X149706809Y-56302058D02*
X149733000Y-56354439D01*
X149733000Y-56354439D02*
X149759190Y-56380630D01*
X149759190Y-56380630D02*
X149811571Y-56406820D01*
X149811571Y-56406820D02*
X149890143Y-56406820D01*
X149235381Y-56406820D02*
X149235381Y-55856820D01*
X149235381Y-56380630D02*
X149287762Y-56406820D01*
X149287762Y-56406820D02*
X149392524Y-56406820D01*
X149392524Y-56406820D02*
X149444905Y-56380630D01*
X149444905Y-56380630D02*
X149471095Y-56354439D01*
X149471095Y-56354439D02*
X149497286Y-56302058D01*
X149497286Y-56302058D02*
X149497286Y-56144915D01*
X149497286Y-56144915D02*
X149471095Y-56092534D01*
X149471095Y-56092534D02*
X149444905Y-56066344D01*
X149444905Y-56066344D02*
X149392524Y-56040153D01*
X149392524Y-56040153D02*
X149287762Y-56040153D01*
X149287762Y-56040153D02*
X149235381Y-56066344D01*
X148763952Y-56380630D02*
X148816333Y-56406820D01*
X148816333Y-56406820D02*
X148921095Y-56406820D01*
X148921095Y-56406820D02*
X148973476Y-56380630D01*
X148973476Y-56380630D02*
X148999667Y-56328249D01*
X148999667Y-56328249D02*
X148999667Y-56118725D01*
X148999667Y-56118725D02*
X148973476Y-56066344D01*
X148973476Y-56066344D02*
X148921095Y-56040153D01*
X148921095Y-56040153D02*
X148816333Y-56040153D01*
X148816333Y-56040153D02*
X148763952Y-56066344D01*
X148763952Y-56066344D02*
X148737762Y-56118725D01*
X148737762Y-56118725D02*
X148737762Y-56171106D01*
X148737762Y-56171106D02*
X148999667Y-56223487D01*
X148502047Y-56406820D02*
X148502047Y-56040153D01*
X148502047Y-56144915D02*
X148475857Y-56092534D01*
X148475857Y-56092534D02*
X148449666Y-56066344D01*
X148449666Y-56066344D02*
X148397285Y-56040153D01*
X148397285Y-56040153D02*
X148344904Y-56040153D01*
X148187762Y-56380630D02*
X148135381Y-56406820D01*
X148135381Y-56406820D02*
X148030619Y-56406820D01*
X148030619Y-56406820D02*
X147978238Y-56380630D01*
X147978238Y-56380630D02*
X147952047Y-56328249D01*
X147952047Y-56328249D02*
X147952047Y-56302058D01*
X147952047Y-56302058D02*
X147978238Y-56249677D01*
X147978238Y-56249677D02*
X148030619Y-56223487D01*
X148030619Y-56223487D02*
X148109190Y-56223487D01*
X148109190Y-56223487D02*
X148161571Y-56197296D01*
X148161571Y-56197296D02*
X148187762Y-56144915D01*
X148187762Y-56144915D02*
X148187762Y-56118725D01*
X148187762Y-56118725D02*
X148161571Y-56066344D01*
X148161571Y-56066344D02*
X148109190Y-56040153D01*
X148109190Y-56040153D02*
X148030619Y-56040153D01*
X148030619Y-56040153D02*
X147978238Y-56066344D01*
X147716333Y-56354439D02*
X147690143Y-56380630D01*
X147690143Y-56380630D02*
X147716333Y-56406820D01*
X147716333Y-56406820D02*
X147742524Y-56380630D01*
X147742524Y-56380630D02*
X147716333Y-56354439D01*
X147716333Y-56354439D02*
X147716333Y-56406820D01*
X147218714Y-56406820D02*
X147218714Y-55856820D01*
X147218714Y-56380630D02*
X147271095Y-56406820D01*
X147271095Y-56406820D02*
X147375857Y-56406820D01*
X147375857Y-56406820D02*
X147428238Y-56380630D01*
X147428238Y-56380630D02*
X147454428Y-56354439D01*
X147454428Y-56354439D02*
X147480619Y-56302058D01*
X147480619Y-56302058D02*
X147480619Y-56144915D01*
X147480619Y-56144915D02*
X147454428Y-56092534D01*
X147454428Y-56092534D02*
X147428238Y-56066344D01*
X147428238Y-56066344D02*
X147375857Y-56040153D01*
X147375857Y-56040153D02*
X147271095Y-56040153D01*
X147271095Y-56040153D02*
X147218714Y-56066344D01*
X146747285Y-56380630D02*
X146799666Y-56406820D01*
X146799666Y-56406820D02*
X146904428Y-56406820D01*
X146904428Y-56406820D02*
X146956809Y-56380630D01*
X146956809Y-56380630D02*
X146983000Y-56328249D01*
X146983000Y-56328249D02*
X146983000Y-56118725D01*
X146983000Y-56118725D02*
X146956809Y-56066344D01*
X146956809Y-56066344D02*
X146904428Y-56040153D01*
X146904428Y-56040153D02*
X146799666Y-56040153D01*
X146799666Y-56040153D02*
X146747285Y-56066344D01*
X146747285Y-56066344D02*
X146721095Y-56118725D01*
X146721095Y-56118725D02*
X146721095Y-56171106D01*
X146721095Y-56171106D02*
X146983000Y-56223487D01*
X146537761Y-56040153D02*
X146406809Y-56406820D01*
X146406809Y-56406820D02*
X146275856Y-56040153D01*
D12*
%TO.P,USB1,S1,SHIELD*%
%TO.N,unconnected-(USB1-PadS1)*%
X154053000Y-61016600D03*
D13*
X154053000Y-56836600D03*
D12*
X145413000Y-61016600D03*
D13*
X145413000Y-56836600D03*
%TD*%
D14*
%TO.P,B2,1,1*%
%TO.N,Net-(B2-Pad1)*%
X152704800Y-58263030D03*
%TD*%
%TO.P,C1,1,1*%
%TO.N,Net-(R1-Pad2)*%
X150723600Y-58263030D03*
%TD*%
%TO.P,C2,1,1*%
%TO.N,Net-(R2-Pad1)*%
X146761200Y-58263030D03*
%TD*%
%TO.P,B1,1,1*%
%TO.N,Net-(B1-Pad1)*%
X148742400Y-58263030D03*
%TD*%
D15*
%TO.N,GND*%
X148745590Y-57221290D03*
X149712920Y-64662290D03*
X151721990Y-58709490D03*
X145397140Y-62876450D03*
X154028700Y-58709490D03*
X152689320Y-59528000D03*
X145471550Y-58709490D03*
X149712920Y-60346510D03*
X146810930Y-57146880D03*
X151721990Y-64668400D03*
X149733000Y-58560670D03*
X145397140Y-64513470D03*
X147778260Y-64668400D03*
X154028700Y-64587880D03*
X153954290Y-62876450D03*
X147778260Y-58783900D03*
X150754660Y-57221290D03*
X146662110Y-59602410D03*
X152689320Y-57221290D03*
%TO.N,Net-(B1-Pad1)*%
X149117640Y-59974460D03*
%TO.N,Net-(B2-Pad1)*%
X151296229Y-59953761D03*
%TO.N,Net-(R1-Pad2)*%
X150308200Y-59974460D03*
%TO.N,Net-(R2-Pad1)*%
X148106721Y-59976651D03*
%TD*%
D16*
%TO.N,Net-(B1-Pad1)*%
X149117640Y-59974460D02*
X149117640Y-58638270D01*
X149117640Y-58638270D02*
X148742400Y-58263030D01*
%TO.N,Net-(B2-Pad1)*%
X151296229Y-59953761D02*
X152704800Y-58545190D01*
X152704800Y-58545190D02*
X152704800Y-58263030D01*
%TO.N,Net-(R1-Pad2)*%
X150308200Y-59974460D02*
X150308200Y-58678430D01*
X150308200Y-58678430D02*
X150723600Y-58263030D01*
%TO.N,Net-(R2-Pad1)*%
X146761200Y-58808580D02*
X146761200Y-58263030D01*
X147929271Y-59976651D02*
X146761200Y-58808580D01*
X148106721Y-59976651D02*
X147929271Y-59976651D01*
%TD*%
%TA.AperFunction,Conductor*%
%TO.N,GND*%
G36*
X153311691Y-56699288D02*
G01*
X153347655Y-56748788D01*
X153352500Y-56779381D01*
X153352500Y-57178981D01*
X153366324Y-57292822D01*
X153367860Y-57305472D01*
X153423406Y-57451936D01*
X153426362Y-57513050D01*
X153392831Y-57564229D01*
X153335622Y-57585925D01*
X153293470Y-57574448D01*
X153292042Y-57577896D01*
X153283033Y-57574164D01*
X153283031Y-57574163D01*
X153283027Y-57574162D01*
X153224558Y-57562531D01*
X153224548Y-57562530D01*
X152185052Y-57562530D01*
X152185051Y-57562530D01*
X152185041Y-57562531D01*
X152126572Y-57574162D01*
X152126566Y-57574164D01*
X152060251Y-57618475D01*
X152060245Y-57618481D01*
X152015934Y-57684796D01*
X152015932Y-57684802D01*
X152004301Y-57743271D01*
X152004300Y-57743283D01*
X152004300Y-58744354D01*
X151985393Y-58802545D01*
X151975304Y-58814358D01*
X151253819Y-59535843D01*
X151199304Y-59563620D01*
X151170923Y-59568115D01*
X151057888Y-59625710D01*
X150968178Y-59715420D01*
X150910584Y-59828453D01*
X150910583Y-59828458D01*
X150898356Y-59905654D01*
X150870578Y-59960171D01*
X150862991Y-59964036D01*
X150892062Y-59993107D01*
X150901634Y-60022565D01*
X150906089Y-60050689D01*
X150910121Y-60076151D01*
X150910583Y-60079064D01*
X150910584Y-60079068D01*
X150952092Y-60160530D01*
X150968179Y-60192103D01*
X151057887Y-60281811D01*
X151170925Y-60339407D01*
X151296229Y-60359253D01*
X151421533Y-60339407D01*
X151534571Y-60281811D01*
X151624279Y-60192103D01*
X151681875Y-60079065D01*
X151686369Y-60050686D01*
X151714141Y-59996173D01*
X151861163Y-59849152D01*
X152717792Y-58992526D01*
X152772308Y-58964749D01*
X152787795Y-58963530D01*
X153224547Y-58963530D01*
X153224548Y-58963530D01*
X153283031Y-58951897D01*
X153349352Y-58907582D01*
X153393667Y-58841261D01*
X153405300Y-58782778D01*
X153405300Y-57743282D01*
X153403601Y-57734741D01*
X153410790Y-57673981D01*
X153452320Y-57629049D01*
X153512329Y-57617110D01*
X153566347Y-57641322D01*
X153652143Y-57717331D01*
X153652146Y-57717333D01*
X153652148Y-57717334D01*
X153802775Y-57796390D01*
X153967944Y-57837100D01*
X153967947Y-57837100D01*
X154138053Y-57837100D01*
X154138056Y-57837100D01*
X154303225Y-57796390D01*
X154453852Y-57717334D01*
X154581183Y-57604529D01*
X154666735Y-57480585D01*
X154715351Y-57443436D01*
X154776519Y-57441958D01*
X154826873Y-57476715D01*
X154847181Y-57534432D01*
X154847210Y-57536824D01*
X154847210Y-60066375D01*
X154828303Y-60124566D01*
X154778803Y-60160530D01*
X154717617Y-60160530D01*
X154668117Y-60124566D01*
X154666735Y-60122614D01*
X154581183Y-59998671D01*
X154556327Y-59976651D01*
X154453853Y-59885867D01*
X154453852Y-59885866D01*
X154303225Y-59806810D01*
X154303224Y-59806809D01*
X154303223Y-59806809D01*
X154138058Y-59766100D01*
X154138056Y-59766100D01*
X153967944Y-59766100D01*
X153967941Y-59766100D01*
X153802776Y-59806809D01*
X153652146Y-59885867D01*
X153524818Y-59998669D01*
X153524816Y-59998672D01*
X153428182Y-60138670D01*
X153367859Y-60297730D01*
X153366427Y-60303542D01*
X153365110Y-60303217D01*
X153342139Y-60352635D01*
X153288662Y-60382364D01*
X153227923Y-60374981D01*
X153183124Y-60333308D01*
X153178189Y-60323092D01*
X153132505Y-60212800D01*
X153125699Y-60196369D01*
X153125698Y-60196368D01*
X153125698Y-60196367D01*
X153033451Y-60076149D01*
X152913233Y-59983902D01*
X152895725Y-59976650D01*
X152773238Y-59925914D01*
X152773240Y-59925914D01*
X152773236Y-59925913D01*
X152773234Y-59925912D01*
X152773232Y-59925912D01*
X152660720Y-59911100D01*
X152585280Y-59911100D01*
X152585279Y-59911100D01*
X152472767Y-59925912D01*
X152472761Y-59925914D01*
X152332768Y-59983901D01*
X152212551Y-60076147D01*
X152212547Y-60076151D01*
X152120301Y-60196368D01*
X152062314Y-60336361D01*
X152062312Y-60336367D01*
X152042534Y-60486599D01*
X152042534Y-60486600D01*
X152061188Y-60628296D01*
X152062313Y-60636836D01*
X152120302Y-60776833D01*
X152212549Y-60897051D01*
X152332767Y-60989298D01*
X152472764Y-61047287D01*
X152585280Y-61062100D01*
X152585281Y-61062100D01*
X152660719Y-61062100D01*
X152660720Y-61062100D01*
X152773236Y-61047287D01*
X152913233Y-60989298D01*
X153033451Y-60897051D01*
X153125698Y-60776833D01*
X153162035Y-60689106D01*
X153201772Y-60642580D01*
X153261267Y-60628296D01*
X153317795Y-60651711D01*
X153349765Y-60703880D01*
X153352500Y-60726991D01*
X153352500Y-61608981D01*
X153366324Y-61722822D01*
X153367860Y-61735472D01*
X153428182Y-61894530D01*
X153524817Y-62034529D01*
X153652148Y-62147334D01*
X153802775Y-62226390D01*
X153967944Y-62267100D01*
X153967947Y-62267100D01*
X154138053Y-62267100D01*
X154138056Y-62267100D01*
X154303225Y-62226390D01*
X154453852Y-62147334D01*
X154581183Y-62034529D01*
X154666735Y-61910585D01*
X154715351Y-61873436D01*
X154776519Y-61871958D01*
X154826873Y-61906715D01*
X154847181Y-61964432D01*
X154847210Y-61966824D01*
X154847210Y-65306890D01*
X154828303Y-65365081D01*
X154778803Y-65401045D01*
X154748210Y-65405890D01*
X144701700Y-65405890D01*
X144643509Y-65386983D01*
X144607545Y-65337483D01*
X144602700Y-65306890D01*
X144602700Y-61942781D01*
X144621607Y-61884590D01*
X144671107Y-61848626D01*
X144732293Y-61848626D01*
X144781793Y-61884590D01*
X144786027Y-61891407D01*
X144788181Y-61894527D01*
X144788182Y-61894530D01*
X144884817Y-62034529D01*
X145012148Y-62147334D01*
X145162775Y-62226390D01*
X145327944Y-62267100D01*
X145327947Y-62267100D01*
X145498053Y-62267100D01*
X145498056Y-62267100D01*
X145663225Y-62226390D01*
X145813852Y-62147334D01*
X145941183Y-62034529D01*
X146037818Y-61894530D01*
X146098140Y-61735472D01*
X146113500Y-61608972D01*
X146113500Y-60726991D01*
X146132407Y-60668800D01*
X146181907Y-60632836D01*
X146243093Y-60632836D01*
X146292593Y-60668800D01*
X146303964Y-60689106D01*
X146340300Y-60776830D01*
X146340301Y-60776831D01*
X146340302Y-60776833D01*
X146432549Y-60897051D01*
X146552767Y-60989298D01*
X146692764Y-61047287D01*
X146805280Y-61062100D01*
X146805281Y-61062100D01*
X146880719Y-61062100D01*
X146880720Y-61062100D01*
X146993236Y-61047287D01*
X147133233Y-60989298D01*
X147253451Y-60897051D01*
X147345698Y-60776833D01*
X147403687Y-60636836D01*
X147423466Y-60486600D01*
X147403687Y-60336364D01*
X147345698Y-60196367D01*
X147253451Y-60076149D01*
X147133233Y-59983902D01*
X147115725Y-59976650D01*
X146993238Y-59925914D01*
X146993240Y-59925914D01*
X146993236Y-59925913D01*
X146993234Y-59925912D01*
X146993232Y-59925912D01*
X146880720Y-59911100D01*
X146805280Y-59911100D01*
X146805279Y-59911100D01*
X146692767Y-59925912D01*
X146692761Y-59925914D01*
X146552768Y-59983901D01*
X146432551Y-60076147D01*
X146432547Y-60076151D01*
X146340301Y-60196368D01*
X146287810Y-60323092D01*
X146248073Y-60369618D01*
X146188578Y-60383901D01*
X146132050Y-60360486D01*
X146100081Y-60308317D01*
X146098266Y-60298242D01*
X146098140Y-60297730D01*
X146098140Y-60297728D01*
X146037818Y-60138670D01*
X145941183Y-59998671D01*
X145916327Y-59976651D01*
X145813853Y-59885867D01*
X145813852Y-59885866D01*
X145663225Y-59806810D01*
X145663224Y-59806809D01*
X145663223Y-59806809D01*
X145498058Y-59766100D01*
X145498056Y-59766100D01*
X145327944Y-59766100D01*
X145327941Y-59766100D01*
X145162776Y-59806809D01*
X145012146Y-59885867D01*
X144884818Y-59998669D01*
X144884816Y-59998672D01*
X144848911Y-60050689D01*
X144797918Y-60124566D01*
X144784780Y-60143599D01*
X144783158Y-60142479D01*
X144745575Y-60179165D01*
X144685032Y-60188005D01*
X144630855Y-60159570D01*
X144603739Y-60104721D01*
X144602700Y-60090418D01*
X144602700Y-57512781D01*
X144621607Y-57454590D01*
X144671107Y-57418626D01*
X144732293Y-57418626D01*
X144781793Y-57454590D01*
X144786027Y-57461407D01*
X144788181Y-57464527D01*
X144788182Y-57464530D01*
X144884817Y-57604529D01*
X145012148Y-57717334D01*
X145162775Y-57796390D01*
X145327944Y-57837100D01*
X145327947Y-57837100D01*
X145498053Y-57837100D01*
X145498056Y-57837100D01*
X145663225Y-57796390D01*
X145813852Y-57717334D01*
X145899653Y-57641321D01*
X145955745Y-57616886D01*
X146015489Y-57630089D01*
X146056063Y-57675886D01*
X146062399Y-57734736D01*
X146060700Y-57743273D01*
X146060700Y-58782776D01*
X146060701Y-58782788D01*
X146072332Y-58841257D01*
X146072334Y-58841263D01*
X146112364Y-58901171D01*
X146116648Y-58907582D01*
X146182969Y-58951897D01*
X146227431Y-58960741D01*
X146241441Y-58963528D01*
X146241446Y-58963528D01*
X146241452Y-58963530D01*
X146417648Y-58963530D01*
X146475839Y-58982437D01*
X146503384Y-59013030D01*
X146508006Y-59021035D01*
X146527070Y-59037032D01*
X146539424Y-59047398D01*
X146542610Y-59050317D01*
X147687528Y-60195235D01*
X147690446Y-60198420D01*
X147716815Y-60229844D01*
X147716816Y-60229845D01*
X147752344Y-60250357D01*
X147755983Y-60252676D01*
X147789582Y-60276202D01*
X147789584Y-60276203D01*
X147789587Y-60276205D01*
X147791038Y-60276593D01*
X147814930Y-60286491D01*
X147816223Y-60287238D01*
X147816224Y-60287238D01*
X147816226Y-60287239D01*
X147830846Y-60289816D01*
X147860751Y-60302511D01*
X147861438Y-60301164D01*
X147868378Y-60304700D01*
X147868379Y-60304701D01*
X147981417Y-60362297D01*
X148106721Y-60382143D01*
X148232025Y-60362297D01*
X148345063Y-60304701D01*
X148434771Y-60214993D01*
X148492367Y-60101955D01*
X148512213Y-59976651D01*
X148492367Y-59851347D01*
X148434771Y-59738309D01*
X148345063Y-59648601D01*
X148300137Y-59625710D01*
X148232028Y-59591006D01*
X148232025Y-59591005D01*
X148169373Y-59581082D01*
X148106722Y-59571159D01*
X148106718Y-59571159D01*
X148050690Y-59580032D01*
X147990259Y-59570460D01*
X147965201Y-59552255D01*
X147429066Y-59016120D01*
X147401289Y-58961603D01*
X147410860Y-58901171D01*
X147416744Y-58891130D01*
X147450067Y-58841261D01*
X147461700Y-58782778D01*
X147461700Y-58782776D01*
X148041900Y-58782776D01*
X148041901Y-58782788D01*
X148053532Y-58841257D01*
X148053534Y-58841263D01*
X148093564Y-58901171D01*
X148097848Y-58907582D01*
X148164169Y-58951897D01*
X148208631Y-58960741D01*
X148222641Y-58963528D01*
X148222646Y-58963528D01*
X148222652Y-58963530D01*
X148693140Y-58963530D01*
X148751331Y-58982437D01*
X148787295Y-59031937D01*
X148792140Y-59062530D01*
X148792140Y-59707346D01*
X148781349Y-59752292D01*
X148731995Y-59849152D01*
X148731994Y-59849156D01*
X148712148Y-59974460D01*
X148728715Y-60079064D01*
X148731994Y-60099763D01*
X148731995Y-60099767D01*
X148753758Y-60142479D01*
X148789590Y-60212802D01*
X148879298Y-60302510D01*
X148992336Y-60360106D01*
X149117640Y-60379952D01*
X149242944Y-60360106D01*
X149355982Y-60302510D01*
X149445690Y-60212802D01*
X149503286Y-60099764D01*
X149523132Y-59974460D01*
X149902708Y-59974460D01*
X149919275Y-60079064D01*
X149922554Y-60099763D01*
X149922555Y-60099767D01*
X149944318Y-60142479D01*
X149980150Y-60212802D01*
X150069858Y-60302510D01*
X150182896Y-60360106D01*
X150308200Y-60379952D01*
X150433504Y-60360106D01*
X150546542Y-60302510D01*
X150636250Y-60212802D01*
X150693846Y-60099764D01*
X150706072Y-60022565D01*
X150733849Y-59968050D01*
X150741437Y-59964183D01*
X150712365Y-59935112D01*
X150702794Y-59905654D01*
X150699660Y-59885866D01*
X150693846Y-59849156D01*
X150651527Y-59766100D01*
X150644490Y-59752289D01*
X150633700Y-59707344D01*
X150633700Y-59062530D01*
X150652607Y-59004339D01*
X150702107Y-58968375D01*
X150732700Y-58963530D01*
X151243347Y-58963530D01*
X151243348Y-58963530D01*
X151301831Y-58951897D01*
X151368152Y-58907582D01*
X151412467Y-58841261D01*
X151424100Y-58782778D01*
X151424100Y-57743282D01*
X151422401Y-57734743D01*
X151421311Y-57729261D01*
X151412467Y-57684799D01*
X151368152Y-57618478D01*
X151366105Y-57617110D01*
X151301833Y-57574164D01*
X151301831Y-57574163D01*
X151301828Y-57574162D01*
X151301827Y-57574162D01*
X151243358Y-57562531D01*
X151243348Y-57562530D01*
X150203852Y-57562530D01*
X150203851Y-57562530D01*
X150203841Y-57562531D01*
X150145372Y-57574162D01*
X150145366Y-57574164D01*
X150079051Y-57618475D01*
X150079045Y-57618481D01*
X150034734Y-57684796D01*
X150034732Y-57684802D01*
X150023101Y-57743271D01*
X150023100Y-57743283D01*
X150023100Y-58486888D01*
X150009624Y-58529644D01*
X150012307Y-58530896D01*
X150008643Y-58538753D01*
X150008251Y-58540216D01*
X149998370Y-58564070D01*
X149997614Y-58565378D01*
X149997610Y-58565390D01*
X149990487Y-58605779D01*
X149989553Y-58609994D01*
X149978936Y-58649617D01*
X149978936Y-58649623D01*
X149982512Y-58690502D01*
X149982700Y-58694803D01*
X149982700Y-59707344D01*
X149971910Y-59752289D01*
X149922554Y-59849154D01*
X149922554Y-59849156D01*
X149902708Y-59974460D01*
X149523132Y-59974460D01*
X149503286Y-59849156D01*
X149453929Y-59752289D01*
X149443139Y-59707344D01*
X149443139Y-59535843D01*
X149443139Y-58654608D01*
X149443327Y-58650333D01*
X149446903Y-58609463D01*
X149446902Y-58609459D01*
X149446273Y-58607110D01*
X149442900Y-58581488D01*
X149442900Y-57743283D01*
X149442898Y-57743271D01*
X149440111Y-57729261D01*
X149431267Y-57684799D01*
X149386952Y-57618478D01*
X149384905Y-57617110D01*
X149320633Y-57574164D01*
X149320631Y-57574163D01*
X149320628Y-57574162D01*
X149320627Y-57574162D01*
X149262158Y-57562531D01*
X149262148Y-57562530D01*
X148222652Y-57562530D01*
X148222651Y-57562530D01*
X148222641Y-57562531D01*
X148164172Y-57574162D01*
X148164166Y-57574164D01*
X148097851Y-57618475D01*
X148097845Y-57618481D01*
X148053534Y-57684796D01*
X148053532Y-57684802D01*
X148041901Y-57743271D01*
X148041900Y-57743283D01*
X148041900Y-58782776D01*
X147461700Y-58782776D01*
X147461700Y-57743282D01*
X147460001Y-57734743D01*
X147458911Y-57729261D01*
X147450067Y-57684799D01*
X147405752Y-57618478D01*
X147403705Y-57617110D01*
X147339433Y-57574164D01*
X147339431Y-57574163D01*
X147339428Y-57574162D01*
X147339427Y-57574162D01*
X147280958Y-57562531D01*
X147280948Y-57562530D01*
X146241452Y-57562530D01*
X146241451Y-57562530D01*
X146241441Y-57562531D01*
X146182972Y-57574162D01*
X146182970Y-57574162D01*
X146182969Y-57574163D01*
X146182968Y-57574163D01*
X146173958Y-57577896D01*
X146172488Y-57574347D01*
X146131220Y-57585963D01*
X146073828Y-57564754D01*
X146039862Y-57513862D01*
X146042298Y-57452725D01*
X146042490Y-57452208D01*
X146098140Y-57305472D01*
X146113500Y-57178972D01*
X146113500Y-56779380D01*
X146132407Y-56721190D01*
X146181907Y-56685226D01*
X146212500Y-56680381D01*
X153253500Y-56680381D01*
X153311691Y-56699288D01*
G37*
%TD.AperFunction*%
%TD*%
M02*
