M48
; DRILL file {KiCad 7.0.7} date Fri Aug 25 12:50:41 2023
; FORMAT={-:-/ absolute / inch / decimal}
; #@! TF.CreationDate,2023-08-25T12:50:41-04:00
; #@! TF.GenerationSoftware,Kicad,Pcbnew,7.0.7
; #@! TF.FileFunction,Plated,1,2,PTH
FMAT,2
INCH
; #@! TA.AperFunction,Plated,PTH,ViaDrill
T1C0.0079
; #@! TA.AperFunction,Plated,PTH,ComponentDrill
T2C0.0236
%
G90
G05
T1
X5.7243Y-2.4755
X5.7243Y-2.5399
X5.7272Y-2.3114
X5.7741Y-2.3466
X5.78Y-2.2499
X5.818Y-2.3143
X5.818Y-2.546
X5.831Y-2.3613
X5.8561Y-2.2528
X5.8708Y-2.3612
X5.8942Y-2.3758
X5.8942Y-2.5458
X5.895Y-2.3055
X5.9176Y-2.3612
X5.9352Y-2.2528
X5.9565Y-2.3604
X5.9733Y-2.3114
X5.9733Y-2.546
X6.0114Y-2.2528
X6.0114Y-2.3436
X6.0612Y-2.4755
X6.0641Y-2.3114
X6.0641Y-2.5428
T2
G00X5.7249Y-2.2495
M15
G01X5.7249Y-2.2259
M16
G05
G00X5.7249Y-2.4239
M15
G01X5.7249Y-2.3806
M16
G05
G00X6.0651Y-2.2495
M15
G01X6.0651Y-2.2259
M16
G05
G00X6.0651Y-2.4239
M15
G01X6.0651Y-2.3806
M16
G05
T0
M30
